<svg id="Capa_1" enable-background="new 0 0 507.972 507.972" fill="white" height="512" viewBox="0 0 507.972 507.972" width="512" xmlns="http://www.w3.org/2000/svg"><g><g><path d="m506.242 457.872c-1.553-1.991-3.937-3.155-6.462-3.154h-136.682c24.042-16.858 38.359-44.375 38.364-73.738h32.773c27.138-.029 49.13-22.021 49.159-49.159v-32.773c-.029-27.138-22.021-49.13-49.159-49.159h-32.773v-16.386c0-4.525-3.668-8.193-8.193-8.193h-278.566c-4.525 0-8.193 3.668-8.193 8.193v147.477c.006 29.363 14.322 56.881 38.364 73.738h-136.682c-4.525.001-8.193 3.669-8.192 8.194 0 .669.082 1.336.245 1.986l8.193 32.772c.912 3.647 4.188 6.206 7.947 6.206h475.201c3.759-.001 7.036-2.559 7.947-6.206l8.193-32.772c.613-2.446.066-5.037-1.484-7.026zm-104.78-158.824h32.773v32.773h-32.773zm0 49.159h32.773c9.045-.012 16.374-7.341 16.386-16.386v-32.773c-.012-9.045-7.341-16.374-16.386-16.386h-32.773v-16.386h32.773c18.091.02 32.752 14.681 32.773 32.773v32.773c-.02 18.091-14.681 32.752-32.773 32.773h-32.773zm-278.566 32.773v-139.284h262.18v139.284c-.047 40.705-33.033 73.691-73.738 73.738h-114.704c-40.705-.047-73.691-33.033-73.738-73.738zm362.29 106.51h-462.4l-4.097-16.386h470.593z"/><path d="m245.793 258.083h-98.318c-4.525 0-8.193 3.668-8.193 8.193s3.668 8.193 8.193 8.193h98.318c4.525 0 8.193-3.668 8.193-8.193s-3.668-8.193-8.193-8.193z"/><path d="m278.565 258.083h-8.193c-4.525 0-8.193 3.668-8.193 8.193s3.668 8.193 8.193 8.193h8.193c4.525 0 8.193-3.668 8.193-8.193s-3.668-8.193-8.193-8.193z"/><path d="m314 156.457c-8.49 7.777-19.049 17.455-19.049 36.08 0 4.525 3.668 8.193 8.193 8.193s8.193-3.668 8.193-8.193c0-11.416 6.059-16.97 13.723-24.001 8.485-7.777 19.049-17.455 19.049-36.08s-10.559-28.302-19.043-36.086c-7.671-7.028-13.73-12.582-13.73-23.999s6.059-16.97 13.723-24.002c8.49-7.777 19.049-17.456 19.049-36.082 0-4.525-3.668-8.193-8.193-8.193s-8.193 3.668-8.193 8.193c0 11.417-6.059 16.971-13.73 24.003-8.484 7.777-19.043 17.455-19.043 36.08s10.561 28.307 19.051 36.085c7.67 7.032 13.723 12.586 13.723 24.002s-6.058 16.969-13.723 24z"/><path d="m248.455 156.457c-8.49 7.777-19.049 17.455-19.049 36.08 0 4.525 3.668 8.193 8.193 8.193s8.193-3.668 8.193-8.193c0-11.416 6.059-16.97 13.723-24.001 8.485-7.777 19.049-17.455 19.049-36.08s-10.559-28.302-19.043-36.086c-7.671-7.028-13.73-12.582-13.73-23.999s6.059-16.97 13.723-24.002c8.49-7.777 19.049-17.456 19.049-36.082 0-4.525-3.668-8.193-8.193-8.193s-8.193 3.668-8.193 8.193c0 11.417-6.059 16.971-13.73 24.003-8.484 7.777-19.043 17.455-19.043 36.08s10.559 28.305 19.049 36.083c7.665 7.032 13.723 12.586 13.723 24.002s-6.056 16.971-13.721 24.002z"/><path d="m182.91 156.457c-8.49 7.777-19.049 17.455-19.049 36.08 0 4.525 3.668 8.193 8.193 8.193s8.193-3.668 8.193-8.193c0-11.416 6.059-16.97 13.729-24.001 8.485-7.777 19.049-17.455 19.049-36.08s-10.564-28.302-19.048-36.086c-7.671-7.028-13.73-12.582-13.73-23.999s6.059-16.97 13.729-24.002c8.485-7.777 19.044-17.456 19.044-36.082 0-4.525-3.668-8.193-8.193-8.193s-8.193 3.668-8.193 8.193c0 11.417-6.059 16.971-13.73 24.003-8.484 7.777-19.043 17.455-19.043 36.08s10.559 28.305 19.049 36.083c7.665 7.032 13.723 12.586 13.723 24.002s-6.058 16.971-13.723 24.002z"/></g></g></svg>