<?xml version="1.0"?>
<svg xmlns="http://www.w3.org/2000/svg" id="Outline" viewBox="0 0 512 512" width="512" height="512" fill="coral"><path d="M444,288H411.845l-60.911-76.14a12.018,12.018,0,0,0-5.158-3.738l-29.909-11.216L319.473,144H328a8,8,0,0,0,8-8V104a24.039,24.039,0,0,0-16-22.624V40a24.028,24.028,0,0,0-24-24H88A24.028,24.028,0,0,0,64,40V81.376A24.039,24.039,0,0,0,48,104v32a8,8,0,0,0,8,8h8.526l5.293,77.688A31.947,31.947,0,0,0,66.868,272a31.934,31.934,0,0,0,0,48,31.934,31.934,0,0,0,0,48A31.973,31.973,0,0,0,83.6,423.69l4.423,64.854A8,8,0,0,0,96,496H288a8,8,0,0,0,7.981-7.455l2.555-37.41,51.813,15.835a44.066,44.066,0,0,0,35.5-4.348L410.216,448H444a12.013,12.013,0,0,0,12-12V300A12.013,12.013,0,0,0,444,288ZM88,32H296a8.009,8.009,0,0,1,8,8V80H80V40A8.009,8.009,0,0,1,88,32ZM64,104a8.009,8.009,0,0,1,8-8H312a8.009,8.009,0,0,1,8,8v24H64Zm16.564,40H303.436l-3.206,47.042L283.5,184.767a11.947,11.947,0,0,0-4.222-.767H228a36.047,36.047,0,0,0-35.772,32H88c-.85,0-1.69.043-2.524.109ZM288.71,360H147.7a31.916,31.916,0,0,0-6.563-40,31.934,31.934,0,0,0,0-48,31.916,31.916,0,0,0,6.563-40h46.369A36.057,36.057,0,0,0,228,256h39.719l25.474,38.213ZM88,312a16,16,0,0,1-4.529-31.337h0A15.91,15.91,0,0,1,88,280h32a16,16,0,0,1,0,32Zm0-80h32a16,16,0,0,1,0,32H88a16,16,0,0,1,0-32ZM72,344a16.019,16.019,0,0,1,16-16h32a16,16,0,0,1,0,32H88A16.019,16.019,0,0,1,72,344Zm0,48a16.019,16.019,0,0,1,16-16h16a16,16,0,0,1,0,32H88A16.019,16.019,0,0,1,72,392Zm208.527,88H103.473l-3.819-56H104A31.976,31.976,0,0,0,131.7,376H287.62ZM440,432H409.108a12.008,12.008,0,0,0-6.174,1.71L377.615,448.9a28.039,28.039,0,0,1-22.591,2.768l-55.371-16.923,9.6-140.808a12.057,12.057,0,0,0-1.988-7.468l-27.417-41.126A11.977,11.977,0,0,0,269.859,240H228a20,20,0,0,1,0-40h50.549l60.58,22.718L400.556,299.5a11.946,11.946,0,0,0,9.367,4.5H440Z"/></svg>
